<svg id="Layer_1" enable-background="new 0 0 90 90" height="512" viewBox="0 0 90 90" width="512" xmlns="http://www.w3.org/2000/svg"><g><path d="m29.313 16.085c4.818.099 9.511 2.295 12.875 8.124 1.25 2.162 4.37 2.162 5.625 0 3.365-5.828 8.058-8.024 12.875-8.124 4.818-.105 9.75 2.167 12.792 5.823 5.87 7.063 6.62 19.406-1.974 28.053l-26.506 22.838-26.51-22.838c-8.589-8.646-7.844-20.99-1.969-28.053 3.042-3.656 7.974-5.928 12.792-5.823zm.14-6.504c-6.885-.147-13.567 2.927-17.932 8.171-8.073 9.709-8.558 25.854 2.38 36.828.058.059.12.115.183.172l28.797 24.801c1.219 1.047 3.021 1.047 4.239 0l28.802-24.801c.063-.057.12-.113.178-.172 10.938-10.975 10.447-27.119 2.375-36.828-4.359-5.245-11.047-8.319-17.928-8.171-5.708.118-11.213 3.29-15.547 8.483-4.333-5.193-9.838-8.365-15.547-8.483z" fill="rgb(255,255,255)"/></g></svg>